<?xml version="1.0" encoding="UTF-8"?>
<!DOCTYPE svg PUBLIC "-//W3C//DTD SVG 1.1//EN" "http://www.w3.org/Graphics/SVG/1.1/DTD/svg11.dtd">
<!-- Creator: CorelDRAW X7 -->
<svg xmlns="http://www.w3.org/2000/svg" xml:space="preserve" width="1200mm" height="600mm" version="1.1" style="shape-rendering:geometricPrecision; text-rendering:geometricPrecision; image-rendering:optimizeQuality; fill-rule:evenodd; clip-rule:evenodd"
viewBox="0 0 120000 60000"
 xmlns:xlink="http://www.w3.org/1999/xlink">
 <defs>
  <style type="text/css">
   <![CDATA[
    .str0 {stroke:#393635;stroke-width:7.62}
    .fil0 {fill:none}
   ]]>
  </style>
 </defs>
 <g id="Capa_x0020_1">
  <metadata id="CorelCorpID_0Corel-Layer"/>
  <path class="fil0 str0" d="M1957 58521l3820 -2098c-2516,-2873 -4348,-9156 -3470,-20464 247,-3184 1615,-11381 5974,-11381 3804,0 6004,3132 5582,6022l1195 -15c245,-4792 4034,-11441 7445,-12997l761 -97c1643,493 2468,1092 2468,1805 1629,1471 1613,4219 1895,6257 882,1562 1355,2488 1327,2752 -1031,9887 -1360,18726 -760,28549 20,332 -68,623 -254,859l6802 0c-663,-320 -1309,-956 -1890,-1820 -865,-2555 -1424,-9915 -1677,-22091 -78,0 -140,-559 -156,-1678 -9,-583 545,-1085 1677,-1222 755,-90 1144,665 1144,1983l0 4954c0,9393 420,14537 839,15616 1244,3210 1889,455 2815,-1450 2211,-4552 2863,-9916 2594,-14926l-78 -1450c-142,-2643 557,-3625 994,-3960 387,-336 1198,-657 1737,20 276,347 467,922 467,1729l0 384 -455 4720 0 461c0,5675 513,10266 1067,13861l606 3938 2305 0c-3,-35 -4,-70 -4,-105l0 -25796c0,-715 487,-1320 1145,-1501l0 -1794c-150,36 -310,55 -480,55l-283 0c-695,0 -1222,-524 -1328,-1611 -219,-2263 2157,-2503 3197,-809 410,669 317,1126 -175,1754 -245,314 -553,516 -921,608l0 1795c128,-35 262,-53 401,-53l0 0c856,0 1555,700 1555,1556l0 25012 2183 0 0 -48674c0,-981 801,-1782 1782,-1782l0 0c980,0 1781,803 1781,1782l0 47914 2955 0c-272,-972 500,-1942 1162,-1942l283 0c99,0 192,3 283,8l0 -1907c-49,5 -99,8 -149,8l0 0c-856,0 -1556,-700 -1556,-1556l0 -25796c0,-857 700,-1556 1556,-1556l0 0c856,0 1555,700 1555,1556l0 25796c0,802 -614,1467 -1396,1548l0 1908c1624,92 2119,951 2000,1824l2172 0c1192,-8462 260,-23819 611,-29707 203,-3410 259,-5115 760,-5115 0,-130 251,-195 762,-195 1197,203 1797,680 1797,1425 -252,2177 -1078,22098 194,22098l97 0c987,-536 2647,-1171 4267,-1340l0 -2624 -586 17c-550,-268 -883,-3639 -1006,-10120 -116,-6474 -311,-11488 -578,-15032 0,-904 593,-1359 1779,-1359 731,0 1099,339 1099,1020l-86 1265c115,261 231,398 340,427l340 0c1302,-1497 3125,-2250 5469,-2250 1360,470 2285,1201 2798,2207l80 426c-195,1071 -644,1606 -1352,1606 -427,0 -1158,-477 -2207,-1439l-672 0c-1288,0 -2540,658 -3754,1974 -1216,1310 -1389,5310 -521,11994 868,6684 803,9758 -203,9237l-930 27 0 2623c1646,-170 3251,143 4068,1536 1472,1510 2191,3144 2338,4750l-2629 0c-197,-1217 -1162,-2321 -3310,-3043l-575 0c-1830,0 -3319,2340 -4460,7019l-89 946 0 194c0,5038 9124,-753 8435,-5106l2629 0c18,200 27,399 28,598l1293 0 0 -18823c0,-715 487,-1320 1146,-1501l0 -3832 -41 0c-696,0 -1142,-534 -1328,-1611 0,-825 599,-1489 1805,-1991l89 0c697,0 1239,631 1619,1894 -316,1142 -955,1708 -1902,1708l-232 0 0 3829c127,-34 261,-52 399,-52l0 0c856,0 1556,700 1556,1556l0 12447 1968 0c-219,-6826 768,-13874 5577,-13874l2407 -176c2415,478 3619,1277 3619,2415 1711,2554 2510,6906 2361,11322l-3080 0c257,-2991 0,-6017 -1087,-8400 -552,-1211 -837,-1989 -1123,-2239l-2319 88 -177 0c-5254,0 -3191,19384 -2062,21505 2135,4010 6110,-3349 6767,-10944l3081 0c-175,5130 -1631,10343 -4431,12919 -2842,3597 -6476,2898 -8258,-1373 -441,-2184 -1128,-6658 -1275,-11233l-1968 0 0 13339c0,856 -700,1556 -1556,1556l0 0c-856,0 -1555,-700 -1555,-1556l0 -6963 -1293 0c9,5647 -6875,10691 -12800,8384 -1457,-462 -2186,-1158 -2186,-2088 17,-117 34,-235 51,-355l-2171 0c-227,1604 -2517,3243 -3689,243 -17,-45 -32,-89 -45,-134l-2958 0 0 1429c0,979 -801,1781 -1781,1781l0 0c-981,0 -1782,-801 -1782,-1781l0 -669 -2183 0 0 774c0,856 -699,1556 -1555,1556l0 0c-818,0 -1493,-638 -1552,-1441l-2303 0 2 17c-214,605 -747,911 -1599,911 -761,0 -1248,-2003 -1450,-6014 -162,-357 -293,-533 -377,-533l-156 0c-383,429 -1106,2332 -2971,5253 -951,1488 -2054,1798 -3114,1297l-6832 0c-314,389 -903,626 -1729,653 -2630,85 -2120,-3634 -1044,-23240 24,-450 -203,-663 -380,-663 -1811,582 -3247,959 -4307,1128l0 -2751c1202,29 2656,-883 3926,-3121 829,-1461 761,-2768 761,-3513 0,-2857 -729,-4508 -2177,-4929 -1571,648 -2801,2177 -3983,4460 -2036,3933 -697,7042 1463,7103l0 2753c-424,67 -788,101 -1090,101 -3310,0 -4459,-2215 -4314,-5109l-1196 15c-222,1499 -1149,2932 -2925,3827 -1883,950 -3687,949 -5046,947l573 -3005 110 67c1992,0 3327,-531 3983,-1611 200,-328 283,-648 283,-947l0 -381c0,-946 -599,-1424 -1797,-1424 -1676,0 -2938,1314 -2938,3983l0 97 350 211 -574 3010c-53,0 -105,0 -157,0 -1961,6026 747,15214 3085,17664 1395,1462 2784,343 4275,-566l566 -97c455,-78 802,380 1045,1133 -986,4496 -5554,6735 -8910,2913l-3796 2090"/>
 </g>
</svg>
