<?xml version="1.0" encoding="UTF-8"?>
<!DOCTYPE svg PUBLIC "-//W3C//DTD SVG 1.1//EN" "http://www.w3.org/Graphics/SVG/1.1/DTD/svg11.dtd">
<!-- Creator: CorelDRAW X7 -->
<svg xmlns="http://www.w3.org/2000/svg" xml:space="preserve" width="330mm" height="483mm" version="1.1" style="shape-rendering:geometricPrecision; text-rendering:geometricPrecision; image-rendering:optimizeQuality; fill-rule:evenodd; clip-rule:evenodd"
viewBox="0 0 33000 48300"
 xmlns:xlink="http://www.w3.org/1999/xlink">
 <defs>
  <style type="text/css">
   <![CDATA[
    .str0 {stroke:#393635;stroke-width:20}
    .fil0 {fill:none}
   ]]>
  </style>
 </defs>
 <g id="Capa_x0020_1">
  <metadata id="CorelCorpID_0Corel-Layer"/>
  <path class="fil0 str0" d="M16198 11860c55,0 100,45 100,100 0,55 -45,100 -100,100 -55,0 -100,-45 -100,-100 0,-55 45,-100 100,-100z"/>
  <line class="fil0 str0" x1="19944" y1="13198" x2="12316" y2= "13198" />
  <line class="fil0 str0" x1="24198" y1="13437" x2="17041" y2= "13437" />
  <line class="fil0 str0" x1="8100" y1="13437" x2="15305" y2= "13437" />
  <line class="fil0 str0" x1="21584" y1="13198" x2="25111" y2= "13198" />
  <line class="fil0 str0" x1="19944" y1="13198" x2="12316" y2= "13198" />
  <line class="fil0 str0" x1="7126" y1="13198" x2="10812" y2= "13198" />
  <line class="fil0 str0" x1="23966" y1="12959" x2="17041" y2= "12959" />
  <line class="fil0 str0" x1="21584" y1="12720" x2="24949" y2= "12720" />
  <line class="fil0 str0" x1="19944" y1="12720" x2="12316" y2= "12720" />
  <line class="fil0 str0" x1="7190" y1="12720" x2="10812" y2= "12720" />
  <line class="fil0 str0" x1="8327" y1="12959" x2="15305" y2= "12959" />
  <line class="fil0 str0" x1="21584" y1="14153" x2="25224" y2= "14153" />
  <line class="fil0 str0" x1="19944" y1="14153" x2="12316" y2= "14153" />
  <line class="fil0 str0" x1="24428" y1="13914" x2="17041" y2= "13914" />
  <line class="fil0 str0" x1="21584" y1="13676" x2="25145" y2= "13676" />
  <line class="fil0 str0" x1="19944" y1="13676" x2="12316" y2= "13676" />
  <line class="fil0 str0" x1="7053" y1="13676" x2="10812" y2= "13676" />
  <line class="fil0 str0" x1="7967" y1="13914" x2="15305" y2= "13914" />
  <line class="fil0 str0" x1="19944" y1="14153" x2="12316" y2= "14153" />
  <line class="fil0 str0" x1="6988" y1="14153" x2="10812" y2= "14153" />
  <line class="fil0 str0" x1="24457" y1="14392" x2="17041" y2= "14392" />
  <line class="fil0 str0" x1="21584" y1="14631" x2="25275" y2= "14631" />
  <line class="fil0 str0" x1="19944" y1="14631" x2="12316" y2= "14631" />
  <line class="fil0 str0" x1="7031" y1="14631" x2="10812" y2= "14631" />
  <line class="fil0 str0" x1="7869" y1="14392" x2="15305" y2= "14392" />
  <line class="fil0 str0" x1="19625" y1="23858" x2="22101" y2= "23858" />
  <line class="fil0 str0" x1="18595" y1="23858" x2="13804" y2= "23858" />
  <line class="fil0 str0" x1="21166" y1="23653" x2="16772" y2= "23653" />
  <line class="fil0 str0" x1="11190" y1="23653" x2="15682" y2= "23653" />
  <line class="fil0 str0" x1="18595" y1="23858" x2="13804" y2= "23858" />
  <line class="fil0 str0" x1="10173" y1="23858" x2="12860" y2= "23858" />
  <line class="fil0 str0" x1="20870" y1="24063" x2="16772" y2= "24063" />
  <line class="fil0 str0" x1="19625" y1="24268" x2="21806" y2= "24268" />
  <line class="fil0 str0" x1="18595" y1="24268" x2="13804" y2= "24268" />
  <line class="fil0 str0" x1="10517" y1="24268" x2="12860" y2= "24268" />
  <line class="fil0 str0" x1="11452" y1="24063" x2="15682" y2= "24063" />
  <line class="fil0 str0" x1="19625" y1="23037" x2="22692" y2= "23037" />
  <line class="fil0 str0" x1="18595" y1="23037" x2="13804" y2= "23037" />
  <line class="fil0 str0" x1="21412" y1="23242" x2="16772" y2= "23242" />
  <line class="fil0 str0" x1="19625" y1="23448" x2="22478" y2= "23448" />
  <line class="fil0 str0" x1="18595" y1="23448" x2="13804" y2= "23448" />
  <line class="fil0 str0" x1="9927" y1="23448" x2="12860" y2= "23448" />
  <line class="fil0 str0" x1="10780" y1="23242" x2="15682" y2= "23242" />
  <line class="fil0 str0" x1="18595" y1="23037" x2="13804" y2= "23037" />
  <line class="fil0 str0" x1="9598" y1="23037" x2="12860" y2= "23037" />
  <line class="fil0 str0" x1="21920" y1="22832" x2="16772" y2= "22832" />
  <path class="fil0 str0" d="M16199 11150c56,0 100,45 100,100 0,55 -44,100 -100,100 -55,0 -100,-45 -100,-100 0,-55 45,-100 100,-100z"/>
  <line class="fil0 str0" x1="10301" y1="22832" x2="15682" y2= "22832" />
  <path class="fil0 str0" d="M21358 7218c1749,1509 2760,3347 3329,4848 485,1279 562,2750 267,4747 -520,3519 -2482,7125 -5408,9622l-1 0 0 423 -6833 0 0 -423 -4 0c-2926,-2497 -4888,-6103 -5408,-9622 -178,-1211 -220,-2228 -118,-3127 70,-605 205,-1157 408,-1677 576,-1476 1820,-3302 3547,-4791 1497,803 4101,1259 5024,1259 923,0 58,0 87,0 29,0 -837,0 86,0 923,0 3527,-456 5024,-1259z"/>
  <path class="fil0 str0" d="M16216 18761c1572,0 2847,868 2847,1939 0,193 -41,378 -118,554 -128,-292 -354,-556 -653,-773 -302,411 -1109,705 -2059,705 -961,0 -1778,-302 -2070,-721 -310,220 -544,489 -675,789 -77,-176 -119,-361 -119,-554 0,-1071 1275,-1939 2847,-1939z"/>
  <path class="fil0 str0" d="M16214 18101c57,0 102,45 102,100 0,55 -45,100 -102,100 -56,0 -101,-45 -101,-100 0,-55 45,-100 101,-100z"/>
  <line class="fil0 str0" x1="21631" y1="15190" x2="25163" y2= "15190" />
  <line class="fil0 str0" x1="19991" y1="15190" x2="12363" y2= "15190" />
  <line class="fil0 str0" x1="24415" y1="15429" x2="17088" y2= "15429" />
  <line class="fil0 str0" x1="7857" y1="15429" x2="15352" y2= "15429" />
  <line class="fil0 str0" x1="21631" y1="15190" x2="25333" y2= "15190" />
  <line class="fil0 str0" x1="19991" y1="15190" x2="12363" y2= "15190" />
  <line class="fil0 str0" x1="7015" y1="15190" x2="10859" y2= "15190" />
  <line class="fil0 str0" x1="24456" y1="14951" x2="17088" y2= "14951" />
  <line class="fil0 str0" x1="7905" y1="14961" x2="15352" y2= "14951" />
  <line class="fil0 str0" x1="21631" y1="16145" x2="25300" y2= "16145" />
  <line class="fil0 str0" x1="19991" y1="16145" x2="12363" y2= "16145" />
  <line class="fil0 str0" x1="24475" y1="15906" x2="17088" y2= "15906" />
  <line class="fil0 str0" x1="21631" y1="15667" x2="25257" y2= "15667" />
  <line class="fil0 str0" x1="19991" y1="15667" x2="12363" y2= "15667" />
  <line class="fil0 str0" x1="7110" y1="15667" x2="10859" y2= "15667" />
  <line class="fil0 str0" x1="7873" y1="15906" x2="15352" y2= "15906" />
  <line class="fil0 str0" x1="21631" y1="16145" x2="25177" y2= "16145" />
  <line class="fil0 str0" x1="19991" y1="16145" x2="12363" y2= "16145" />
  <line class="fil0 str0" x1="7110" y1="16145" x2="10859" y2= "16145" />
  <line class="fil0 str0" x1="24369" y1="16384" x2="17088" y2= "16384" />
  <line class="fil0 str0" x1="21631" y1="16623" x2="25129" y2= "16623" />
  <line class="fil0 str0" x1="19991" y1="16623" x2="12363" y2= "16623" />
  <line class="fil0 str0" x1="7208" y1="16623" x2="10859" y2= "16623" />
  <line class="fil0 str0" x1="8019" y1="16384" x2="15352" y2= "16384" />
  <path class="fil0 str0" d="M16198 10373c55,0 100,45 100,100 0,55 -45,100 -100,100 -55,0 -100,-45 -100,-100 0,-55 45,-100 100,-100z"/>
  <path class="fil0 str0" d="M16199 9663c56,0 100,45 100,100 0,55 -44,100 -100,100 -55,0 -100,-45 -100,-100 0,-55 45,-100 100,-100z"/>
  <path class="fil0 str0" d="M-7391 20223l6800 0 0 310 -6800 0 0 -310zm5028 -8207l3415 5880 -268 156 -3415 -5881 268 -155zm-3229 0l-3415 5880 268 156 3415 -5881 -268 -155zm5388 11226l0 1749c0,291 -238,529 -529,529l-6403 0c-291,0 -529,-238 -529,-529l0 -1687c-2260,-1271 -3796,-3675 -3836,-6442l-1576 -918c-251,-147 -337,-473 -190,-724l3223 -5532c147,-252 472,-338 724,-191l1427 832c1138,-694 2475,-1093 3905,-1093 1400,0 2711,383 3834,1051l1446 -843c251,-147 577,-61 724,191l3223 5532c147,252 61,577 -191,724l-1523 887c-10,2758 -1506,5166 -3729,6464z"/>
  <path class="fil0 str0" d="M35628 11860c55,0 100,45 100,100 0,55 -45,100 -100,100 -55,0 -100,-45 -100,-100 0,-55 45,-100 100,-100z"/>
  <line class="fil0 str0" x1="39374" y1="13198" x2="31746" y2= "13198" />
  <line class="fil0 str0" x1="43628" y1="13437" x2="36471" y2= "13437" />
  <line class="fil0 str0" x1="27530" y1="13437" x2="34735" y2= "13437" />
  <line class="fil0 str0" x1="41014" y1="13198" x2="44541" y2= "13198" />
  <line class="fil0 str0" x1="39374" y1="13198" x2="31746" y2= "13198" />
  <line class="fil0 str0" x1="26556" y1="13198" x2="30242" y2= "13198" />
  <line class="fil0 str0" x1="43396" y1="12959" x2="36471" y2= "12959" />
  <line class="fil0 str0" x1="41014" y1="12720" x2="44379" y2= "12720" />
  <line class="fil0 str0" x1="39374" y1="12720" x2="31746" y2= "12720" />
  <line class="fil0 str0" x1="26619" y1="12720" x2="30242" y2= "12720" />
  <line class="fil0 str0" x1="27757" y1="12959" x2="34735" y2= "12959" />
  <line class="fil0 str0" x1="41014" y1="14153" x2="44654" y2= "14153" />
  <line class="fil0 str0" x1="39374" y1="14153" x2="31746" y2= "14153" />
  <line class="fil0 str0" x1="43858" y1="13914" x2="36471" y2= "13914" />
  <line class="fil0 str0" x1="41014" y1="13676" x2="44575" y2= "13676" />
  <line class="fil0 str0" x1="39374" y1="13676" x2="31746" y2= "13676" />
  <line class="fil0 str0" x1="26483" y1="13676" x2="30242" y2= "13676" />
  <line class="fil0 str0" x1="27397" y1="13914" x2="34735" y2= "13914" />
  <line class="fil0 str0" x1="39374" y1="14153" x2="31746" y2= "14153" />
  <line class="fil0 str0" x1="26418" y1="14153" x2="30242" y2= "14153" />
  <line class="fil0 str0" x1="43887" y1="14392" x2="36471" y2= "14392" />
  <line class="fil0 str0" x1="41014" y1="14631" x2="44705" y2= "14631" />
  <line class="fil0 str0" x1="39374" y1="14631" x2="31746" y2= "14631" />
  <line class="fil0 str0" x1="26461" y1="14631" x2="30242" y2= "14631" />
  <line class="fil0 str0" x1="27299" y1="14392" x2="34735" y2= "14392" />
  <line class="fil0 str0" x1="39055" y1="23858" x2="41531" y2= "23858" />
  <line class="fil0 str0" x1="38025" y1="23858" x2="33234" y2= "23858" />
  <line class="fil0 str0" x1="40596" y1="23653" x2="36202" y2= "23653" />
  <line class="fil0 str0" x1="30620" y1="23653" x2="35112" y2= "23653" />
  <line class="fil0 str0" x1="38025" y1="23858" x2="33234" y2= "23858" />
  <line class="fil0 str0" x1="29603" y1="23858" x2="32290" y2= "23858" />
  <line class="fil0 str0" x1="40300" y1="24063" x2="36202" y2= "24063" />
  <line class="fil0 str0" x1="39055" y1="24268" x2="41235" y2= "24268" />
  <line class="fil0 str0" x1="38025" y1="24268" x2="33234" y2= "24268" />
  <line class="fil0 str0" x1="29947" y1="24268" x2="32290" y2= "24268" />
  <line class="fil0 str0" x1="30882" y1="24063" x2="35112" y2= "24063" />
  <line class="fil0 str0" x1="39055" y1="23037" x2="42121" y2= "23037" />
  <line class="fil0 str0" x1="38025" y1="23037" x2="33234" y2= "23037" />
  <line class="fil0 str0" x1="40842" y1="23242" x2="36202" y2= "23242" />
  <line class="fil0 str0" x1="39055" y1="23448" x2="41908" y2= "23448" />
  <line class="fil0 str0" x1="38025" y1="23448" x2="33234" y2= "23448" />
  <line class="fil0 str0" x1="29356" y1="23448" x2="32290" y2= "23448" />
  <line class="fil0 str0" x1="30210" y1="23242" x2="35112" y2= "23242" />
  <line class="fil0 str0" x1="38025" y1="23037" x2="33234" y2= "23037" />
  <line class="fil0 str0" x1="29028" y1="23037" x2="32290" y2= "23037" />
  <line class="fil0 str0" x1="41350" y1="22832" x2="36202" y2= "22832" />
  <path class="fil0 str0" d="M35629 11150c55,0 100,45 100,100 0,55 -45,100 -100,100 -55,0 -100,-45 -100,-100 0,-55 45,-100 100,-100z"/>
  <line class="fil0 str0" x1="29731" y1="22832" x2="35112" y2= "22832" />
  <path class="fil0 str0" d="M40788 7218c1749,1509 2760,3347 3329,4848 485,1279 562,2750 267,4747 -520,3519 -2482,7125 -5408,9622l-1 0 0 423 -6833 0 0 -423 -4 0c-2926,-2497 -4888,-6103 -5408,-9622 -179,-1211 -220,-2228 -118,-3127 70,-605 205,-1157 407,-1677 577,-1476 1821,-3302 3548,-4791 1497,803 4101,1259 5024,1259 923,0 58,0 87,0 28,0 -837,0 86,0 923,0 3527,-456 5024,-1259z"/>
  <path class="fil0 str0" d="M35646 18761c1572,0 2847,868 2847,1939 0,193 -41,378 -118,554 -128,-292 -355,-556 -653,-773 -302,411 -1109,705 -2059,705 -962,0 -1778,-302 -2070,-721 -310,220 -544,489 -675,789 -77,-176 -119,-361 -119,-554 0,-1071 1275,-1939 2847,-1939z"/>
  <path class="fil0 str0" d="M35644 18101c57,0 102,45 102,100 0,55 -45,100 -102,100 -56,0 -101,-45 -101,-100 0,-55 45,-100 101,-100z"/>
  <line class="fil0 str0" x1="41061" y1="15190" x2="44593" y2= "15190" />
  <line class="fil0 str0" x1="39421" y1="15190" x2="31793" y2= "15190" />
  <line class="fil0 str0" x1="43845" y1="15429" x2="36518" y2= "15429" />
  <line class="fil0 str0" x1="27287" y1="15429" x2="34782" y2= "15429" />
  <line class="fil0 str0" x1="41061" y1="15190" x2="44763" y2= "15190" />
  <line class="fil0 str0" x1="39421" y1="15190" x2="31793" y2= "15190" />
  <line class="fil0 str0" x1="26445" y1="15190" x2="30289" y2= "15190" />
  <line class="fil0 str0" x1="43886" y1="14951" x2="36518" y2= "14951" />
  <line class="fil0 str0" x1="27335" y1="14961" x2="34782" y2= "14951" />
  <line class="fil0 str0" x1="41061" y1="16145" x2="44730" y2= "16145" />
  <line class="fil0 str0" x1="39421" y1="16145" x2="31793" y2= "16145" />
  <line class="fil0 str0" x1="43905" y1="15906" x2="36518" y2= "15906" />
  <line class="fil0 str0" x1="41061" y1="15667" x2="44687" y2= "15667" />
  <line class="fil0 str0" x1="39421" y1="15667" x2="31793" y2= "15667" />
  <line class="fil0 str0" x1="26540" y1="15667" x2="30289" y2= "15667" />
  <line class="fil0 str0" x1="27303" y1="15906" x2="34782" y2= "15906" />
  <line class="fil0 str0" x1="41061" y1="16145" x2="44607" y2= "16145" />
  <line class="fil0 str0" x1="39421" y1="16145" x2="31793" y2= "16145" />
  <line class="fil0 str0" x1="26540" y1="16145" x2="30289" y2= "16145" />
  <line class="fil0 str0" x1="43799" y1="16384" x2="36518" y2= "16384" />
  <line class="fil0 str0" x1="41061" y1="16623" x2="44559" y2= "16623" />
  <line class="fil0 str0" x1="39421" y1="16623" x2="31793" y2= "16623" />
  <line class="fil0 str0" x1="26638" y1="16623" x2="30289" y2= "16623" />
  <line class="fil0 str0" x1="27449" y1="16384" x2="34782" y2= "16384" />
  <path class="fil0 str0" d="M35628 10373c55,0 100,45 100,100 0,55 -45,100 -100,100 -55,0 -100,-45 -100,-100 0,-55 45,-100 100,-100z"/>
  <path class="fil0 str0" d="M35629 9663c55,0 100,45 100,100 0,55 -45,100 -100,100 -55,0 -100,-45 -100,-100 0,-55 45,-100 100,-100z"/>
  <path class="fil0 str0" d="M54963 11575c55,0 100,45 100,100 0,56 -45,100 -100,100 -55,0 -100,-44 -100,-100 0,-55 45,-100 100,-100z"/>
  <line class="fil0 str0" x1="58709" y1="12914" x2="51081" y2= "12914" />
  <line class="fil0 str0" x1="62963" y1="13152" x2="55806" y2= "13152" />
  <line class="fil0 str0" x1="46865" y1="13152" x2="54070" y2= "13152" />
  <line class="fil0 str0" x1="60349" y1="12913" x2="63876" y2= "12913" />
  <line class="fil0 str0" x1="58709" y1="12913" x2="51081" y2= "12913" />
  <line class="fil0 str0" x1="45891" y1="12913" x2="49577" y2= "12913" />
  <line class="fil0 str0" x1="62731" y1="12675" x2="55806" y2= "12675" />
  <line class="fil0 str0" x1="60349" y1="12436" x2="63714" y2= "12436" />
  <line class="fil0 str0" x1="58709" y1="12436" x2="51081" y2= "12436" />
  <line class="fil0 str0" x1="45955" y1="12436" x2="49577" y2= "12436" />
  <line class="fil0 str0" x1="47092" y1="12675" x2="54070" y2= "12675" />
  <line class="fil0 str0" x1="60349" y1="13869" x2="63989" y2= "13869" />
  <line class="fil0 str0" x1="58709" y1="13869" x2="51081" y2= "13869" />
  <line class="fil0 str0" x1="63193" y1="13630" x2="55806" y2= "13630" />
  <line class="fil0 str0" x1="60349" y1="13391" x2="63910" y2= "13391" />
  <line class="fil0 str0" x1="58709" y1="13391" x2="51081" y2= "13391" />
  <line class="fil0 str0" x1="45818" y1="13391" x2="49577" y2= "13391" />
  <line class="fil0 str0" x1="46732" y1="13630" x2="54070" y2= "13630" />
  <line class="fil0 str0" x1="58709" y1="13869" x2="51081" y2= "13869" />
  <line class="fil0 str0" x1="45753" y1="13869" x2="49577" y2= "13869" />
  <line class="fil0 str0" x1="63222" y1="14108" x2="55806" y2= "14108" />
  <line class="fil0 str0" x1="60349" y1="14347" x2="64040" y2= "14347" />
  <line class="fil0 str0" x1="58709" y1="14347" x2="51081" y2= "14347" />
  <line class="fil0 str0" x1="45796" y1="14347" x2="49577" y2= "14347" />
  <line class="fil0 str0" x1="46635" y1="14108" x2="54070" y2= "14108" />
  <line class="fil0 str0" x1="58390" y1="23574" x2="60866" y2= "23574" />
  <line class="fil0 str0" x1="57360" y1="23574" x2="52569" y2= "23574" />
  <line class="fil0 str0" x1="59931" y1="23368" x2="55537" y2= "23368" />
  <line class="fil0 str0" x1="49955" y1="23368" x2="54447" y2= "23368" />
  <line class="fil0 str0" x1="57360" y1="23574" x2="52569" y2= "23574" />
  <line class="fil0 str0" x1="48938" y1="23574" x2="51625" y2= "23574" />
  <line class="fil0 str0" x1="59635" y1="23779" x2="55537" y2= "23779" />
  <line class="fil0 str0" x1="58390" y1="23984" x2="60571" y2= "23984" />
  <line class="fil0 str0" x1="57360" y1="23984" x2="52569" y2= "23984" />
  <line class="fil0 str0" x1="49282" y1="23984" x2="51625" y2= "23984" />
  <line class="fil0 str0" x1="50218" y1="23779" x2="54447" y2= "23779" />
  <line class="fil0 str0" x1="58390" y1="22753" x2="61457" y2= "22753" />
  <line class="fil0 str0" x1="57360" y1="22753" x2="52569" y2= "22753" />
  <line class="fil0 str0" x1="60177" y1="22958" x2="55537" y2= "22958" />
  <line class="fil0 str0" x1="58390" y1="23163" x2="61243" y2= "23163" />
  <line class="fil0 str0" x1="57360" y1="23163" x2="52569" y2= "23163" />
  <line class="fil0 str0" x1="48692" y1="23163" x2="51625" y2= "23163" />
  <line class="fil0 str0" x1="49545" y1="22958" x2="54447" y2= "22958" />
  <line class="fil0 str0" x1="57360" y1="22753" x2="52569" y2= "22753" />
  <line class="fil0 str0" x1="48364" y1="22753" x2="51625" y2= "22753" />
  <line class="fil0 str0" x1="60685" y1="22548" x2="55537" y2= "22548" />
  <path class="fil0 str0" d="M54964 10865c56,0 100,45 100,100 0,56 -44,100 -100,100 -55,0 -100,-44 -100,-100 0,-55 45,-100 100,-100z"/>
  <line class="fil0 str0" x1="49066" y1="22548" x2="54447" y2= "22548" />
  <path class="fil0 str0" d="M60123 6933c1749,1509 2760,3347 3329,4849 485,1279 562,2750 267,4747 -520,3519 -2482,7125 -5408,9622l-1 0 0 423 -6833 0 0 -423 -4 0c-2926,-2497 -4888,-6103 -5407,-9622 -179,-1211 -221,-2229 -119,-3127 70,-606 205,-1157 408,-1677 576,-1476 1821,-3302 3547,-4792 1497,804 4102,1260 5024,1260 923,0 58,-1 87,-1 29,0 -837,1 86,1 923,0 3527,-456 5024,-1260z"/>
  <path class="fil0 str0" d="M54981 18477c1573,0 2847,868 2847,1939 0,192 -41,378 -118,554 -128,-293 -354,-556 -653,-773 -301,411 -1109,705 -2059,705 -961,0 -1778,-302 -2070,-721 -310,219 -544,489 -675,789 -77,-176 -118,-362 -118,-554 0,-1071 1274,-1939 2846,-1939z"/>
  <path class="fil0 str0" d="M54980 17817c56,0 102,45 102,100 0,55 -46,100 -102,100 -57,0 -102,-45 -102,-100 0,-55 45,-100 102,-100z"/>
  <line class="fil0 str0" x1="60396" y1="14905" x2="63928" y2= "14905" />
  <line class="fil0 str0" x1="58756" y1="14905" x2="51128" y2= "14905" />
  <line class="fil0 str0" x1="63180" y1="15144" x2="55853" y2= "15144" />
  <line class="fil0 str0" x1="46622" y1="15144" x2="54117" y2= "15144" />
  <line class="fil0 str0" x1="60396" y1="14905" x2="64099" y2= "14905" />
  <line class="fil0 str0" x1="58756" y1="14905" x2="51128" y2= "14905" />
  <line class="fil0 str0" x1="45780" y1="14905" x2="49624" y2= "14905" />
  <line class="fil0 str0" x1="63221" y1="14666" x2="55853" y2= "14666" />
  <line class="fil0 str0" x1="46670" y1="14677" x2="54117" y2= "14666" />
  <line class="fil0 str0" x1="60396" y1="15861" x2="64065" y2= "15861" />
  <line class="fil0 str0" x1="58756" y1="15861" x2="51128" y2= "15861" />
  <line class="fil0 str0" x1="63240" y1="15622" x2="55853" y2= "15622" />
  <line class="fil0 str0" x1="60396" y1="15383" x2="64022" y2= "15383" />
  <line class="fil0 str0" x1="58756" y1="15383" x2="51128" y2= "15383" />
  <line class="fil0 str0" x1="45876" y1="15383" x2="49624" y2= "15383" />
  <line class="fil0 str0" x1="46638" y1="15622" x2="54117" y2= "15622" />
  <line class="fil0 str0" x1="60396" y1="15861" x2="63942" y2= "15861" />
  <line class="fil0 str0" x1="58756" y1="15861" x2="51128" y2= "15861" />
  <line class="fil0 str0" x1="45876" y1="15861" x2="49624" y2= "15861" />
  <line class="fil0 str0" x1="63134" y1="16100" x2="55853" y2= "16100" />
  <line class="fil0 str0" x1="60396" y1="16339" x2="63894" y2= "16339" />
  <line class="fil0 str0" x1="58756" y1="16339" x2="51128" y2= "16339" />
  <line class="fil0 str0" x1="45973" y1="16339" x2="49624" y2= "16339" />
  <line class="fil0 str0" x1="46784" y1="16100" x2="54117" y2= "16100" />
  <path class="fil0 str0" d="M54963 10089c55,0 100,44 100,100 0,55 -45,100 -100,100 -55,0 -100,-45 -100,-100 0,-56 45,-100 100,-100z"/>
  <path class="fil0 str0" d="M54964 9379c56,0 100,45 100,100 0,55 -44,100 -100,100 -55,0 -100,-45 -100,-100 0,-55 45,-100 100,-100z"/>
 </g>
</svg>
